# AST/ASF file generated using VICON BodyLanguage
# -----------------------------------------------
:version 1.10
:name VICON
:units
  mass 1.0
  length 0.45
  angle deg
:documentation
   .ast/.asf automatically generated from VICON data using
   VICON BodyBuilder and BodyLanguage model FoxedUp or BRILLIANT.MOD
:root
   order TX TY TZ RX RY RZ
   axis XYZ
   position 0 0 0  
   orientation 0 0 0 
:bonedata
  begin
     id 1 
     name lhipjoint
     direction 0.623415 -0.642378 0.445763 
     length 2.49859 
     axis 0 0 0  XYZ
  end
  begin
     id 2 
     name lfemur
     direction 0.34202 -0.939693 0  
     length 6.69689  
     axis 0 0 20  XYZ
    dof rx ry rz
    limits (-160.0 20.0)
           (-70.0 70.0)
           (-60.0 70.0)
  end
  begin
     id 3 
     name ltibia
     direction 0.34202 -0.939693 0   
     length 7.37574   
     axis 0 0 20   XYZ
    dof rx
    limits (-10.0 170.0)
  end
  begin
     id 4 
     name lfoot
     direction 0.084323 -0.231675 0.969132   
     length 2.09111   
     axis -90 7.62852e-016 20   XYZ
    dof rx rz
    limits (-45.0 90.0)
           (-70.0 20.0)
  end
  begin
     id 5 
     name ltoes
     direction 1.5357e-011 -4.21957e-011 1   
     length 1.04989   
     axis -90 7.62852e-016 20   XYZ
    dof rx
    limits (-90.0 20.0)
  end
  begin
     id 6 
     name rhipjoint
     direction -0.605402 -0.653903 0.45376   
     length 2.45455  
     axis 0 0 0  XYZ 
  end
  begin
     id 7 
     name rfemur
     direction -0.34202 -0.939693 0   
     length 6.64523   
     axis 0 0 -20   XYZ
    dof rx ry rz
    limits (-160.0 20.0)
           (-70.0 70.0)
           (-70.0 60.0)
  end
  begin
     id 8 
     name rtibia
     direction -0.34202 -0.939693 0   
     length 7.3339   
     axis 0 0 -20   XYZ
    dof rx
    limits (-10.0 170.0)
 end
 begin
     id 9 
     name rfoot
     direction -0.120854 -0.332043 0.93549   
     length 2.23135  
     axis -90 -7.62852e-016 -20   XYZ
    dof rx rz
    limits (-45.0 90.0)
           (-20.0 70.0)
  end
  begin
     id 10 
     name rtoes
     direction -1.53563e-011 -4.21914e-011 1   
     length 1.10614   
     axis -90 -7.62852e-016 -20   XYZ
    dof rx
    limits (-90.0 20.0)
  end
  begin
     id 11 
     name lowerback
     direction 0.0319682 0.998615 -0.0417941   
     length 2.02718   
     axis 0 0 0   XYZ
    dof rx ry rz
    limits (-20.0 45.0)
           (-30.0 30.0)
           (-30.0 30.0)
  end
  begin
     id 12 
     name upperback
     direction 7.63181e-005 0.995808 0.0914691   
     length 1.97539   
     axis 0 0 0   XYZ
    dof rx ry rz
    limits (-20.0 45.0)
           (-30.0 30.0)
           (-30.0 30.0)
  end
  begin
     id 13 
     name thorax
     direction -0.016423 0.993627 0.111514   
     length 2.00349   
     axis 0 0 0   XYZ
    dof rx ry rz
    limits (-20.0 45.0)
           (-30.0 30.0)
           (-30.0 30.0)
  end
  begin
     id 14 
     name lowerneck
     direction -0.174763 0.981668 -0.0760716   
     length 1.71436   
     axis 0 0 0   XYZ
    dof rx ry rz
    limits (-20.0 45.0)
           (-30.0 30.0)
           (-30.0 30.0)
  end
  begin
     id 15 
     name upperneck
     direction 0.345458 0.934587 -0.0848868   
     length 1.72805   
     axis 0 0 0   XYZ
    dof rx ry rz
    limits (-20.0 45.0)
           (-30.0 30.0)
           (-30.0 30.0)
  end
  begin
     id 16
     name head
     direction 0.13001 0.989848 -0.0574291  
     length 1.767  
     axis 0 0 0   XYZ
    dof rx ry rz
    limits (-20.0 45.0)
           (-30.0 30.0)
           (-30.0 30.0)
  end
  begin
     id 17 
     name lclavicle
     direction 0.952951 0.290122 0.0878234  
     length 3.54654  
     axis 0 0 0   XYZ
    dof ry rz
    limits (-20.0 10.0)
           (0.0 20.0)
  end
  begin
     id 18 
     name lhumerus
     direction 1 -4.48957e-011 -4.56525e-028   
     length 5.19807   
     axis 180 -30 -90   XYZ
    dof rx ry rz
    limits (-60.0 90.0)
           (-90.0 90.0)
           (-90.0 90.0)
  end
  begin
     id 19
     name lradius
     direction 1 -4.48979e-011 -2.0317e-027   
     length 3.0937   
     axis 180 -30 -90   XYZ
    dof rx
    limits (-10.0 170.0)
  end
  begin
     id 20
     name lwrist
     direction 1 -4.48953e-011 -3.05809e-027   
     length 1.54685   
     axis 8.48514e-016 90 90   XYZ
    dof ry
    limits (-180.0 0.0)
 end
  begin
     id 21 
     name lhand
     direction 1 -4.48952e-011 -6.11639e-027   
     length 0.672632   
     axis 3.9013e-015 90 90   XYZ
    dof rx rz
    limits (-90.0 90.0)
           (-45.0 45.0)
  end
  begin
     id 22 
     name lfingers
     direction 1 -4.48925e-011 -1.22426e-026   
     length 0.542293   
     axis 7.80276e-015 90 90   XYZ
    dof rx
    limits (0.0 90.0)
  end
  begin
     id 23
     name lthumb
     direction 0.707107 -6.3486e-011 0.707107   
     length 0.778628   
     axis -90 45 5.37419e-014   XYZ
    dof rx rz
    limits (-45.0 45.0)
           (-45.0 45.0)
  end
  begin
     id 24 
     name rclavicle
     direction -0.960732 0.273675 -0.0457849   
     length 3.52079  
     axis 0 0 0   XYZ 
    dof ry rz
    limits (-10.0 20.0)
           (-20.0 0.0)
  end
  begin
     id 25 
     name rhumerus
     direction -1 -4.48976e-011 -1.63613e-027  
     length 5.45222   
     axis 180 30 90   XYZ
    dof rx ry rz
    limits (-90.0 60.0)
           (-90.0 90.0)
           (-90.0 90.0)
  end
  begin
     id 26 
     name rradius
     direction -1 -4.48957e-011 -7.00033e-028   
     length 3.01284   
     axis 180 30 90   XYZ
    dof rx
    limits (-10.0 170.0)
  end
  begin
     id 27 
     name rwrist
     direction -1 -4.48983e-011 -3.05543e-027   
     length 1.50642   
     axis 8.48514e-016 -90 -90   XYZ
    dof ry
    limits (-180.0 0.0)
  end
  begin
     id 28
     name rhand
     direction -1 -4.48984e-011 -6.11072e-027   
     length 0.622296   
     axis 3.9013e-015 -90 -90   XYZ
    dof rx rz
    limits (-90.0 90.0)
           (-45.0 45.0)
  end
  begin
     id 29
     name rfingers
     direction -1 -4.48865e-011 -1.22637e-026   
     length 0.501711   
     axis 7.80276e-015 -90 -90   XYZ
    dof rx
    limits (0.0 90.0)
  end
  begin
     id 30
     name rthumb
     direction -0.707107 -6.34932e-011 0.707107   
     length 0.72036   
     axis -90 -45 -5.37419e-014   XYZ
    dof rx rz
    limits (-45.0 45.0)
           (-45.0 45.0)
  end
:hierarchy
  begin
    root lhipjoint rhipjoint lowerback
    lhipjoint lfemur
    lfemur ltibia
    ltibia lfoot
    lfoot ltoes
    rhipjoint rfemur
    rfemur rtibia
    rtibia rfoot
    rfoot rtoes
    lowerback upperback
    upperback thorax
    thorax lowerneck lclavicle rclavicle
    lowerneck upperneck
    upperneck head
    lclavicle lhumerus
    lhumerus lradius
    lradius lwrist
    lwrist lhand lthumb
    lhand lfingers
    rclavicle rhumerus
    rhumerus rradius
    rradius rwrist
    rwrist rhand rthumb
    rhand rfingers
  end

#!OML:ASF H:\Not Pregnant\Project 1\Capture day 1\Session 1\non-pregnant.ASF
:FULLY-SPECIFIED
:DEGREES
73
root 1.77615 16.345 -32.4275 16.8337 -4.29821 -5.7026
lowerback -2.67767 2.48529 7.31612
upperback -6.85584 3.3552 -0.724623
thorax -5.20854 1.28099 -4.89997
lowerneck 23.1872 -8.59126 -31.6869
upperneck -17.7492 -16.4183 45.3051
head -1.10943 -11.252 26.86
rclavicle -1.62258e-014 -3.18055e-015
rhumerus -53.0315 24.4041 -108.499
rradius 69.91
rwrist 1.79309
rhand -11.4366 -3.63765
rfingers 7.12502
rthumb 14.5999 -33.1038
lclavicle -1.62258e-014 -3.18055e-015
lhumerus -46.6506 -3.34326 86.6124
lradius 42.517
lwrist 35.9959
lhand -15.7281 -10.3458
lfingers 7.12502
lthumb 10.4624 19.3739
rfemur -19.9051 5.55855 27.7784
rtibia 31.5326
rfoot -27.6459 2.77477
rtoes -13.0641
lfemur -33.2849 1.46621 -11.3507
ltibia 58.0291
lfoot -16.4989 9.32018
ltoes -34.1325
74
root 1.76916 16.3416 -32.3979 16.8638 -4.09435 -5.88059
lowerback -2.34341 2.51498 7.57643
upperback -6.81041 3.42925 -0.628922
thorax -5.33559 1.30315 -4.96094
lowerneck 23.0187 -8.60001 -31.7192
upperneck -17.8547 -16.3631 45.3068
head -1.12229 -11.2063 26.8645
rclavicle 2.11209e-014 2.38542e-015
rhumerus -53.4846 24.5251 -108.535
rradius 71.2682
rwrist 1.65463
rhand -11.5221 -3.849
rfingers 7.12502
rthumb 14.5175 -33.3211
lclavicle 2.11209e-014 2.38542e-015
lhumerus -46.5874 -3.47056 86.7133
lradius 42.7322
lwrist 35.9495
lhand -15.8019 -10.4108
lfingers 7.12502
lthumb 10.3913 19.3125
rfemur -19.6273 5.17861 28.0466
rtibia 31.1788
rfoot -27.6893 3.06167
rtoes -12.9594
lfemur -34.7484 1.48925 -11.1342
ltibia 60.4064
lfoot -15.4738 8.33731
ltoes -33.2537
75
root 1.76159 16.3376 -32.3632 16.8082 -3.7545 -5.99622
lowerback -2.01482 2.49663 7.79812
upperback -6.72472 3.43804 -0.538098
thorax -5.42671 1.29706 -5.00376
lowerneck 22.8511 -8.61794 -31.7505
upperneck -17.9516 -16.324 45.3192
head -1.12308 -11.171 26.8711
rclavicle -6.95746e-016 -5.56597e-015
rhumerus -53.899 24.6321 -108.557
rradius 72.5571
rwrist 1.58553
rhand -11.6351 -4.04207
rfingers 7.12502
rthumb 14.4087 -33.5219
lclavicle -6.95746e-016 -5.56597e-015
lhumerus -46.4933 -3.57002 86.8047
lradius 42.8852
lwrist 35.8215
lhand -15.8659 -10.4809
lfingers 7.12502
lthumb 10.3295 19.2454
rfemur -19.2292 4.73972 28.2944
rtibia 30.8193
rfoot -27.7523 3.23192
rtoes -12.8819
lfemur -36.1427 1.39972 -10.9574
ltibia 62.7173
lfoot -14.6636 7.21123
ltoes -32.5036
76
root 1.75251 16.3333 -32.3238 16.6926 -3.3594 -6.0889
lowerback -1.69114 2.45731 7.98166
upperback -6.60771 3.41799 -0.441929
thorax -5.48752 1.28089 -5.01802
lowerneck 22.6768 -8.64534 -31.7858
upperneck -18.0467 -16.3001 45.3463
head -1.11096 -11.1455 26.8846
rclavicle -1.27595e-014 -1.59028e-015
rhumerus -54.2638 24.7338 -108.563
rradius 73.7939
rwrist 1.48016
rhand -11.6991 -4.25046
rfingers 7.12502
rthumb 14.347 -33.7347
lclavicle -1.27595e-014 -1.59028e-015
lhumerus -46.3763 -3.62601 86.8804
lradius 42.9914
lwrist 35.6223
lhand -15.9266 -10.5434
lfingers 7.12502
lthumb 10.271 19.1858
rfemur -18.7312 4.31943 28.5419
rtibia 30.4396
rfoot -27.8162 3.30689
rtoes -12.8411
lfemur -37.4659 1.27982 -10.7988
ltibia 64.9413
lfoot -14.1354 5.9448
ltoes -32.0377
77
root 1.74512 16.3294 -32.282 16.5838 -3.01429 -6.19636
lowerback -1.38116 2.43799 8.18414
upperback -6.48789 3.42454 -0.351262
thorax -5.53283 1.27765 -5.04811
lowerneck 22.5071 -8.67863 -31.8133
upperneck -18.1365 -16.2847 45.3801
head -1.09387 -11.1264 26.8987
rclavicle 1.32937e-015 -3.57812e-015
rhumerus -54.5871 24.8465 -108.579
rradius 74.9308
rwrist 1.44518
rhand -11.8934 -4.35669
rfingers 7.12502
rthumb 14.1598 -33.8541
lclavicle 1.32937e-015 -3.57812e-015
lhumerus -46.2542 -3.6359 86.9357
lradius 43.0764
lwrist 35.3712
lhand -15.9865 -10.5976
lfingers 7.12502
lthumb 10.2132 19.1345
rfemur -18.2217 3.92087 28.7833
rtibia 30.0312
rfoot -27.8673 3.42034
rtoes -12.804
lfemur -38.776 1.21851 -10.6668
ltibia 67.07
lfoot -13.8576 4.62088
ltoes -31.9137
78
root 1.73925 16.3255 -32.2377 16.4771 -2.70546 -6.31141
lowerback -1.07838 2.43163 8.39955
upperback -6.36518 3.44876 -0.267431
thorax -5.56758 1.28296 -5.09247
lowerneck 22.3302 -8.71838 -31.8284
upperneck -18.2135 -16.2749 45.4178
head -1.06994 -11.1109 26.9067
rclavicle 3.64894e-014 2.50469e-014
rhumerus -54.8649 24.9697 -108.604
rradius 76.0021
rwrist 1.3706
rhand -12.0824 -4.47458
rfingers 7.12502
rthumb 13.9776 -33.9847
lclavicle 3.64894e-014 2.50469e-014
lhumerus -46.1395 -3.60098 86.9714
lradius 43.1655
lwrist 35.0829
lhand -16.0511 -10.6358
lfingers 7.12502
lthumb 10.1509 19.0994
rfemur -17.6945 3.54254 29.0158
rtibia 29.5963
rfoot -27.9055 3.55497
rtoes -12.7843
lfemur -40.0682 1.20232 -10.5692
ltibia 69.0947
lfoot -13.7623 3.31849
ltoes -32.1423
79
root 1.73371 16.3217 -32.1901 16.3562 -2.42481 -6.42815
lowerback -0.775365 2.43175 8.60837
upperback -6.2425 3.48243 -0.190155
thorax -5.60097 1.29322 -5.14036
lowerneck 22.1637 -8.76141 -31.8207
upperneck -18.2695 -16.2682 45.4503
head -1.04515 -11.0985 26.9003
rclavicle -6.69656e-015 -6.75868e-015
rhumerus -55.1107 25.1049 -108.657
rradius 77.0066
rwrist 1.23725
rhand -12.2259 -4.63254
rfingers 7.12502
rthumb 13.8393 -34.1521
lclavicle -6.69656e-015 -6.75868e-015
lhumerus -46.0655 -3.52602 86.9834
lradius 43.2902
lwrist 34.7665
lhand -16.1236 -10.6498
lfingers 7.12502
lthumb 10.0809 19.0887
rfemur -17.1285 3.2026 29.2411
rtibia 29.1426
rfoot -27.934 3.67587
rtoes -12.7753
lfemur -41.3142 1.22643 -10.5082
ltibia 71.0089
lfoot -13.7721 2.09234
ltoes -32.6094
80
root 1.72792 16.318 -32.1399 16.2529 -2.22806 -6.55261
lowerback -0.489536 2.45229 8.78792
upperback -6.11903 3.54181 -0.113994
thorax -5.62074 1.31848 -5.17291
lowerneck 21.9687 -8.81341 -31.7961
upperneck -18.2976 -16.2659 45.4785
head -1.00764 -11.0868 26.8713
rclavicle -5.19698e-014 -3.08116e-014
rhumerus -55.3143 25.2803 -108.736
rradius 77.9506
rwrist 1.04912
rhand -12.3244 -4.84406
rfingers 7.12502
rthumb 13.7444 -34.3701
lclavicle -5.19698e-014 -3.08116e-014
lhumerus -46.0263 -3.40128 86.9801
lradius 43.4875
lwrist 34.4263
lhand -16.2186 -10.6231
lfingers 7.12502
lthumb 9.98924 19.1199
rfemur -16.5674 2.94057 29.4513
rtibia 28.6835
rfoot -27.9489 3.80244
rtoes -12.7657
lfemur -42.5356 1.34646 -10.4916
ltibia 72.8137
lfoot -13.8083 1.00884
ltoes -33.1691
81
root 1.72251 16.3138 -32.0869 16.1383 -2.0866 -6.67314
lowerback -0.19536 2.47645 8.94358
upperback -5.99609 3.60705 -0.0390311
thorax -5.6457 1.34756 -5.19429
lowerneck 21.7575 -8.86405 -31.7688
upperneck -18.2861 -16.2645 45.4988
head -0.957778 -11.0737 26.8258
rclavicle 3.4924e-014 -2.22639e-014
rhumerus -55.4866 25.5035 -108.845
rradius 78.8417
rwrist 0.793499
rhand -12.334 -5.11752
rfingers 7.12502
rthumb 13.7352 -34.6442
lclavicle 3.4924e-014 -2.22639e-014
lhumerus -46.0635 -3.22518 86.962
lradius 43.7977
lwrist 34.0573
lhand -16.3434 -10.5439
lfingers 7.12502
lthumb 9.86884 19.2048
rfemur -15.9826 2.73289 29.641
rtibia 28.228
rfoot -27.9608 3.91708
rtoes -12.7644
lfemur -43.7018 1.51931 -10.524
ltibia 74.507
lfoot -13.8249 0.108101
ltoes -33.6921
82
root 1.71536 16.31 -32.0325 16.1056 -2.15115 -6.81855
lowerback 0.0662775 2.5548 9.0229
upperback -5.90141 3.74148 0.0431164
thorax -5.67514 1.414 -5.16693
lowerneck 21.5114 -8.91685 -31.7485
upperneck -18.2347 -16.2682 45.5114
head -0.888109 -11.0597 26.7605
rclavicle -2.2239e-015 -2.38542e-015
rhumerus -55.63 25.7933 -108.984
rradius 79.693
rwrist 0.468286
rhand -12.2551 -5.48279
rfingers 7.12502
rthumb 13.8111 -35.0043
lclavicle -2.2239e-015 -2.38542e-015
lhumerus -46.1899 -2.99288 86.9333
lradius 44.2614
lwrist 33.6555
lhand -16.4977 -10.4096
lfingers 7.12502
lthumb 9.71997 19.3462
rfemur -15.4852 2.69334 29.8051
rtibia 27.7897
rfoot -27.9518 4.07983
rtoes -12.758
lfemur -44.8811 1.90934 -10.6022
ltibia 76.0944
lfoot -13.8269 -0.630354
ltoes -34.0527
83
root 1.70869 16.3055 -31.9753 16.0751 -2.24712 -6.94224
lowerback 0.323895 2.62771 9.06956
upperback -5.81518 3.86761 0.118518
thorax -5.71376 1.47696 -5.12898
lowerneck 21.2547 -8.96598 -31.7297
upperneck -18.1449 -16.2729 45.5165
head -0.807123 -11.0444 26.6829
rclavicle 2.50469e-014 2.0276e-014
rhumerus -55.7479 26.1344 -109.156
rradius 80.5073
rwrist 0.0659138
rhand -12.0999 -5.91496
rfingers 7.12502
rthumb 13.9608 -35.4262
lclavicle 2.50469e-014 2.0276e-014
lhumerus -46.4367 -2.73414 86.8996
lradius 44.9169
lwrist 33.2198
lhand -16.6778 -10.23
lfingers 7.12502
lthumb 9.54625 19.5337
rfemur -14.9912 2.68294 29.9357
rtibia 27.376
rfoot -27.9503 4.22649
rtoes -12.751
lfemur -46.0241 2.31829 -10.7337
ltibia 77.5674
lfoot -13.8241 -1.18624
ltoes -34.2802
84
root 1.70246 16.3003 -31.915 16.0474 -2.37816 -7.04314
lowerback 0.585369 2.69641 9.079
upperback -5.7385 3.9876 0.187118
thorax -5.7673 1.53741 -5.07854
lowerneck 20.9682 -9.01378 -31.7224
upperneck -18.006 -16.2835 45.5215
head -0.702893 -11.0295 26.5967
rclavicle -1.23371e-014 -1.25234e-014
rhumerus -55.8409 26.5267 -109.357
rradius 81.2891
rwrist -0.407185
rhand -11.9474 -6.37269
rfingers 7.12502
rthumb 14.1077 -35.8738
lclavicle -1.23371e-014 -1.25234e-014
lhumerus -46.805 -2.45904 86.8668
lradius 45.7774
lwrist 32.7469
lhand -16.8699 -10.0282
lfingers 7.12502
lthumb 9.36092 19.7439
rfemur -14.5026 2.7044 30.031
rtibia 26.9942
rfoot -27.9625 4.35722
rtoes -12.7579
lfemur -47.1257 2.74147 -10.9143
ltibia 78.9213
lfoot -13.8197 -1.58973
ltoes -34.357
